<?xml version="1.0" encoding="utf-8"?>
<!-- Generator: Adobe Illustrator 27.7.0, SVG Export Plug-In . SVG Version: 6.00 Build 0)  -->
<svg version="1.1" id="Layer_1" xmlns="http://www.w3.org/2000/svg" xmlns:xlink="http://www.w3.org/1999/xlink" x="0px" y="0px"
	 viewBox="0 0 16 16" style="enable-background:new 0 0 16 16;" xml:space="preserve">
<style type="text/css">
	.st0{display:none;}
	.st1{display:inline;fill:none;stroke:#000000;stroke-linecap:round;stroke-linejoin:round;stroke-miterlimit:10;}
	.st2{fill:#724FA2;}
</style>
<g id="grid" class="st0">
</g>
<g id="_x31_px" class="st0">
	<path class="st1" d="M5.4,4c3.4-1.3,6.7,0,10.1,4c-5,6-10,6-15,0c1-1.3,2.1-2.2,3.1-3"/>
	<circle class="st1" cx="8" cy="8" r="2.5"/>
</g>
<g id="line_expanded">
	<g>
		<path class="st2" d="M15.9,7.7C12.4,3.5,8.8,2.1,5.3,3.6C5,3.7,4.9,4,5,4.2c0.1,0.3,0.4,0.4,0.7,0.3c3.1-1.3,6.1-0.1,9.2,3.5
			c-4.6,5.3-9.1,5.3-13.7,0C2.1,6.9,3,6.1,3.9,5.4C4.1,5.3,4.2,5,4,4.8C3.9,4.5,3.6,4.5,3.3,4.6c-1,0.8-2.1,1.8-3.2,3.1
			C0,7.9,0,8.1,0.1,8.3C2.7,11.4,5.4,13,8,13s5.3-1.6,7.9-4.7C16,8.1,16,7.9,15.9,7.7z"/>
		<path class="st2" d="M11,8c0-1.7-1.3-3-3-3S5,6.3,5,8s1.3,3,3,3S11,9.7,11,8z M6,8c0-1.1,0.9-2,2-2s2,0.9,2,2s-0.9,2-2,2
			S6,9.1,6,8z"/>
	</g>
</g>
</svg>
