<?xml version="1.0" encoding="UTF-8"?>
<svg id="Layer_2" data-name="Layer 2" xmlns="http://www.w3.org/2000/svg" viewBox="0 0 76.75 98.84">
  <defs>
    <style>
      .cls-1 {
        fill: #fcfcfc;
      }
    </style>
  </defs>
  <g id="Layer_1-2" data-name="Layer 1">
    <path class="cls-1" d="m55.35,19.84H1.9c-1.04,0-1.9.86-1.9,1.91v75.19c0,1.04.86,1.9,1.9,1.9h53.45c1.05,0,1.91-.86,1.91-1.9V21.75c0-1.05-.86-1.91-1.91-1.91Zm-9.12,62.97H11.03c-.61,0-1.1-.5-1.1-1.1s.49-1.1,1.1-1.1h35.2c.6,0,1.1.5,1.1,1.1s-.5,1.1-1.1,1.1Zm2.28-34.91c-6.31,7.53-12.88,11.42-19.2,11.42s-12.88-3.89-19.2-11.42c-.24-.49-.24-.97,0-1.46,2.68-3.16,5.35-5.59,7.78-7.53.73-.25,1.46-.25,1.7.48.49.49.24,1.22-.24,1.46-2.19,1.7-4.38,3.65-6.56,6.32,11.18,12.88,22.11,12.88,33.29,0-7.53-8.75-14.82-11.67-22.36-8.51-.73.25-1.45,0-1.7-.73-.24-.48,0-1.21.73-1.45,8.51-3.65,17.26-.25,25.76,9.96.25.49.25.97,0,1.46Zm-26.49-.73c0-4.13,3.16-7.29,7.29-7.29s7.3,3.16,7.3,7.29-3.16,7.29-7.3,7.29-7.29-3.16-7.29-7.29Z"/>
    <path class="cls-1" d="m76.65,15.12l-14.35,68.88c-.22,1.07-.83,1.96-1.65,2.57V20.67c0-2.34-1.91-4.25-4.24-4.25H17.9l2.7-12.98c.48-2.32,2.78-3.83,5.11-3.35l47.59,9.92c2.33.48,3.84,2.78,3.35,5.11Z"/>
  </g>
</svg>